# xmcd
#
# Track frame offsets: 
#        150
#        24800
#        41918
#        57001
#        75522
#        93581
#        110864
#        137444
#        158401
#        180945
#        202659
#        215276
#
# Disc length: 3137 seconds
#
# Revision: 1
# Processed by: cddbd v1.5.2PL0 Copyright (c) Steve Scherf et al.
# Submitted via: ExactAudioCopyFreeDBPlugin 1.0
#
DISCID=890c3f0c
DTITLE=Stacey Kent - Breakfast on the morning tram
DYEAR=1900
DGENRE=Jazz
TTITLE0=The ice hotel
TTITLE1=Landslide
TTITLE2=Ces petits riens
TTITLE3=I wish I could go travelling again
TTITLE4=So many stars
TTITLE5=Samba Saravah
TTITLE6=Breakfast in the morning tram
TTITLE7=Never let me go
TTITLE8=So romantic
TTITLE9=Hard hearted Hannah
TTITLE10=La saison des pluies
TTITLE11=What a wonderful world
EXTD=
EXTT0=
EXTT1=
EXTT2=
EXTT3=
EXTT4=
EXTT5=
EXTT6=
EXTT7=
EXTT8=
EXTT9=
EXTT10=
EXTT11=
PLAYORDER=
